<?xml version="1.0" standalone="no"?>
<!DOCTYPE svg PUBLIC "-//W3C//DTD SVG 20010904//EN"
 "http://www.w3.org/TR/2001/REC-SVG-20010904/DTD/svg10.dtd">
<svg version="1.0" xmlns="http://www.w3.org/2000/svg"
 width="256.000000pt" height="256.000000pt" viewBox="0 0 256.000000 256.000000"
 preserveAspectRatio="xMidYMid meet">
<metadata>
Created by potrace 1.14, written by Peter Selinger 2001-2017
</metadata>
<g transform="translate(0.000000,256.000000) scale(0.100000,-0.100000)"
fill="#000000" stroke="none">
<path d="M0 1280 l0 -1280 1280 0 1280 0 0 1280 0 1280 -1280 0 -1280 0 0
-1280z m1563 856 c158 -26 329 -99 335 -143 4 -29 -28 -31 -66 -4 -55 38 -135
72 -220 93 -125 32 -380 31 -497 0 -279 -76 -458 -265 -516 -547 -28 -134 -22
-387 11 -510 63 -232 194 -385 399 -462 103 -39 202 -54 358 -54 205 1 320 21
456 83 l67 31 0 298 0 299 -220 0 -220 0 0 25 0 25 248 -2 247 -3 3 -333 2
-333 -82 -39 c-161 -75 -345 -106 -567 -97 -166 7 -261 30 -389 93 -132 64
-232 164 -296 296 -76 154 -89 220 -90 448 -1 221 9 276 74 415 105 227 303
371 573 420 97 18 283 18 390 1z"/>
</g>
</svg>
